# Blender 3.3.1
# www.blender.org
mtllib camera.mtl
o Cube
v 1.000000 1.000000 -1.553143
v 1.000000 -1.000000 -1.553143
v 1.000000 1.000000 2.073840
v 1.000000 -1.000000 2.073840
v -0.049784 1.000000 -1.553143
v -0.049784 -1.000000 -1.553143
v -0.049784 1.000000 2.073840
v -0.049784 -1.000000 2.073840
v 1.242714 -0.026700 -1.307307
v 1.242714 0.411378 -1.189925
v 1.242714 0.732074 -0.869229
v 1.242714 0.849456 -0.431151
v 1.242714 0.732074 0.006927
v 1.242714 0.411378 0.327623
v 1.242714 -0.026700 0.445006
v 1.242714 -0.464778 0.327623
v 1.242714 -0.785474 0.006927
v 1.242714 -0.902856 -0.431151
v 1.242714 -0.785474 -0.869229
v 1.242714 -0.464778 -1.189925
v 0.852814 0.411378 -1.189925
v 0.852814 -0.026700 -1.307307
v 0.852814 0.732074 -0.869229
v 0.852814 0.849456 -0.431151
v 0.852814 0.732074 0.006927
v 0.852814 0.411378 0.327623
v 0.852814 -0.026700 0.445006
v 0.852814 -0.464778 0.327623
v 0.852814 -0.785474 0.006927
v 0.852814 -0.902856 -0.431151
v 0.852814 -0.785474 -0.869229
v 0.852814 -0.464778 -1.189925
vn -0.0000 -0.0000 1.0000
vn -0.0000 -0.0000 -1.0000
vn -1.0000 -0.0000 -0.0000
vn 1.0000 -0.0000 -0.0000
vn -0.0000 -1.0000 -0.0000
vn -0.0000 1.0000 -0.0000
vn -0.0000 0.2588 -0.9659
vn -0.0000 -0.9659 -0.2588
vn -0.0000 0.7071 0.7071
vn -0.0000 -0.2588 0.9659
vn -0.0000 0.7071 -0.7071
vn -0.0000 -0.7071 -0.7071
vn -0.0000 0.2588 0.9659
vn -0.0000 -0.7071 0.7071
vn -0.0000 0.9659 -0.2588
vn -0.0000 -0.2588 -0.9659
vn -0.0000 -0.9659 0.2588
vn -0.0000 0.9659 0.2588
vt 0.625000 0.750000
vt 0.625000 0.500000
vt 0.375000 0.750000
vt 0.375000 0.500000
vt 0.625000 0.000000
vt 0.625000 1.000000
vt 0.625000 0.750000
vt 0.375000 0.000000
vt 0.375000 1.000000
vt 0.375000 0.750000
vt 0.625000 0.250000
vt 0.625000 0.750000
vt 0.875000 0.500000
vt 0.375000 0.250000
vt 0.375000 0.750000
vt 0.125000 0.500000
vt 0.625000 0.250000
vt 0.625000 0.500000
vt 0.875000 0.750000
vt 0.375000 0.250000
vt 0.375000 0.500000
vt 0.125000 0.750000
vt 0.000000 0.000000
vt 0.000000 0.000000
vt 0.000000 0.000000
vt 0.000000 0.000000
vt 0.000000 0.000000
vt 0.000000 0.000000
vt 0.000000 0.000000
vt 0.000000 0.000000
vt 0.000000 0.000000
vt 0.000000 0.000000
vt 0.000000 0.000000
vt 0.000000 0.000000
vt 0.000000 0.000000
vt 0.000000 0.000000
vt 0.000000 0.000000
vt 0.000000 0.000000
vt 0.000000 0.000000
vt 0.000000 0.000000
vt 0.000000 0.000000
vt 0.000000 0.000000
vt 0.000000 0.000000
vt 0.000000 0.000000
vt 0.000000 0.000000
vt 0.000000 0.000000
s 0
usemtl Material
f 4/8/1 3/5/1 7/17/1 8/20/1
f 6/14/2 5/11/2 1/2/2 2/4/2
f 8/21/3 7/18/3 5/12/3 6/15/3
f 2/3/4 1/1/4 3/6/4 4/9/4
f 6/16/5 2/4/5 4/10/5 8/22/5
f 1/2/6 5/13/6 7/19/6 3/7/6
f 10/24/3 9/23/3 20/34/3 19/33/3 18/32/3 17/31/3 16/30/3 15/29/3 14/28/3 13/27/3 12/26/3 11/25/3
f 21/35/4 23/37/4 24/38/4 25/39/4 26/40/4 27/41/4 28/42/4 29/43/4 30/44/4 31/45/4 32/46/4 22/36/4
f 15/29/7 16/30/7 28/42/7 27/41/7
f 12/26/8 13/27/8 25/39/8 24/38/8
f 19/33/9 20/34/9 32/46/9 31/45/9
f 9/23/10 10/24/10 21/35/10 22/36/10
f 16/30/11 17/31/11 29/43/11 28/42/11
f 13/27/12 14/28/12 26/40/12 25/39/12
f 20/34/13 9/23/13 22/36/13 32/46/13
f 10/24/14 11/25/14 23/37/14 21/35/14
f 17/31/15 18/32/15 30/44/15 29/43/15
f 14/28/16 15/29/16 27/41/16 26/40/16
f 11/25/17 12/26/17 24/38/17 23/37/17
f 18/32/18 19/33/18 31/45/18 30/44/18
